<svg xmlns="http://www.w3.org/2000/svg" viewBox="0 0 580 320" role="img" aria-labelledby="title desc">
  <title id="title">Certifólio</title><desc id="desc">Project cover for Certifólio.</desc>
  <style>.bg{fill:#11100f}.ink{fill:#f7f2e9}.muted{fill:#aaa39a}.line{stroke:#38332e}.accent{fill:#ef4d23}text{font-family:Arial,Helvetica,sans-serif}</style>
  <rect class="bg" width="580" height="320" rx="18"/>
  <path class="line" d="M30 54H550M30 263H550"/>
  <circle class="accent" cx="530" cy="33" r="7"/>
  <text class="muted" x="30" y="36" font-size="11" font-weight="700" letter-spacing="2.2">01 / FULL-STACK PRODUCT</text>
  <g transform="translate(29 79) scale(.7)" fill="none">
    <path d="M9 16.5C17.7 17.4 25.6 21.1 30.6 27.8V48.2C25.2 42.8 18.1 40.4 9 40.2V16.5Z" class="ink"/>
    <path d="M55 16.5C46.3 17.4 38.4 21.1 33.4 27.8V48.2C38.8 42.8 45.9 40.4 55 40.2V16.5Z" class="ink" opacity=".45"/>
    <path d="M5.5 22.5H8V43.7C17.1 40.9 25.2 43.5 30.8 50.8C23.7 45.1 15 44.2 5.5 47.3V22.5Z" class="ink"/>
    <path d="M58.5 22.5H56V43.7C46.9 40.9 38.8 43.5 33.2 50.8C40.3 45.1 49 44.2 58.5 47.3V22.5Z" class="ink"/>
  </g>
  <text class="ink" x="30" y="169" font-size="44" font-weight="800" letter-spacing="-2">Certifólio</text>
  <text class="muted" x="30" y="203" font-size="15">Courses become a trajectory worth showing.</text>
  <text class="muted" x="30" y="291" font-size="11" font-weight="700" letter-spacing="1.2">REACT 19 · TYPESCRIPT · CLOUDFLARE · D1</text>
  <text class="ink" x="520" y="294" font-size="19" font-weight="800">↗</text>
</svg>