<svg xmlns="http://www.w3.org/2000/svg" viewBox="0 0 1200 300" role="img" aria-labelledby="t d">
  <title id="t">Folium</title><desc id="d">A study product for mind maps, presentations and visual learning materials.</desc>
  <defs><linearGradient id="bg" x1="0" y1="0" x2="1" y2="1"><stop stop-color="#0B1220"/><stop offset="1" stop-color="#111827"/></linearGradient></defs>
  <rect width="1200" height="300" rx="26" fill="url(#bg)"/>
  <rect x="30" y="30" width="1140" height="240" rx="18" fill="none" stroke="#FFFFFF" stroke-opacity="0.08"/>
  <text x="64" y="74" fill="#60A5FA" font-family="ui-monospace, monospace" font-size="14" letter-spacing="2.2">03 / EDUCATION PRODUCT · PRIVATE CODEBASE</text>
  <text x="64" y="142" fill="#F8FAFC" font-family="Inter, Arial, sans-serif" font-size="48" font-weight="800" letter-spacing="-2">Folium</text>
  <text x="64" y="183" fill="#CBD5E1" font-family="Inter, Arial, sans-serif" font-size="20">Study tools that do not have to feel like school software.</text>
  <text x="64" y="232" fill="#94A3B8" font-family="ui-monospace, monospace" font-size="14">REACT 19 · TYPESCRIPT · VITE · FRAMER MOTION · FASTAPI · POSTGRESQL</text>
  <g transform="translate(768 54)" stroke-linecap="round">
    <rect x="0" y="0" width="184" height="184" rx="18" fill="#0F172A" stroke="#334155"/>
    <path d="M92 92L46 54M92 92L48 132M92 92L140 48M92 92L144 132" stroke="#334155" stroke-width="2"/>
    <rect x="66" y="75" width="52" height="34" rx="10" fill="#2F6BFF"/>
    <rect x="18" y="36" width="58" height="32" rx="9" fill="#172033" stroke="#475569"/>
    <rect x="18" y="118" width="60" height="32" rx="9" fill="#172033" stroke="#475569"/>
    <rect x="122" y="30" width="48" height="32" rx="9" fill="#172033" stroke="#475569"/>
    <rect x="122" y="118" width="48" height="32" rx="9" fill="#172033" stroke="#475569"/>
    <circle cx="92" cy="92" r="4" fill="#67E8F9" stroke="none"/>
    <g transform="translate(214 22)">
      <rect width="150" height="140" rx="18" fill="#F8FAFC"/>
      <rect x="18" y="18" width="114" height="70" rx="10" fill="#E8EEF8"/>
      <rect x="30" y="32" width="58" height="8" rx="4" fill="#2F6BFF"/>
      <rect x="30" y="50" width="82" height="6" rx="3" fill="#A8B5C7"/>
      <rect x="30" y="63" width="62" height="6" rx="3" fill="#C2CBD8"/>
      <rect x="18" y="104" width="50" height="14" rx="7" fill="#67E8F9"/>
      <rect x="78" y="104" width="54" height="14" rx="7" fill="#D7E1EE"/>
    </g>
  </g>
</svg>